<?xml version="1.0" standalone="no"?>
<!DOCTYPE svg PUBLIC "-//W3C//DTD SVG 20010904//EN"
 "http://www.w3.org/TR/2001/REC-SVG-20010904/DTD/svg10.dtd">
<svg version="1.0" xmlns="http://www.w3.org/2000/svg"
 width="700.000000pt" height="700.000000pt" viewBox="0 0 700.000000 700.000000"
 preserveAspectRatio="xMidYMid meet">
<metadata>
Created by potrace 1.11, written by Peter Selinger 2001-2013
</metadata>
<g transform="translate(0.000000,700.000000) scale(0.100000,-0.100000)"
fill="#000000" stroke="none">
<path d="M2727 6884 c-1 -1 -33 -4 -72 -7 -203 -16 -379 -99 -523 -246 -68
-70 -120 -147 -329 -486 -182 -296 -186 -308 -148 -372 17 -29 27 -36 385
-263 124 -78 248 -157 275 -175 28 -18 145 -92 260 -165 116 -73 248 -158 294
-188 47 -30 100 -61 119 -69 44 -18 93 -10 123 21 19 19 114 184 246 426 59
108 163 293 178 320 9 14 32 56 52 93 l36 68 21 -38 c12 -21 55 -101 95 -178
72 -137 125 -238 201 -380 21 -38 63 -119 95 -180 32 -60 73 -139 92 -174 19
-35 33 -64 31 -66 -20 -16 -341 -205 -347 -205 -5 0 -11 -3 -13 -8 -1 -4 -35
-26 -74 -49 -39 -23 -79 -53 -88 -67 -20 -32 -21 -78 0 -121 21 -46 48 -55
194 -70 36 -4 72 -8 81 -10 8 -2 49 -6 90 -10 40 -4 76 -8 79 -10 3 -1 43 -6
90 -9 47 -4 94 -9 105 -11 11 -2 47 -7 80 -10 59 -6 85 -9 175 -20 25 -3 68
-8 95 -10 28 -3 66 -7 85 -10 57 -8 112 -14 160 -19 81 -8 185 -20 190 -21 3
-1 41 -5 85 -9 44 -5 87 -10 95 -11 51 -9 155 -19 211 -19 53 -1 72 3 90 19
20 18 64 105 316 625 47 96 116 238 153 315 37 77 108 223 158 325 49 102 124
257 167 344 82 168 92 211 61 259 -21 32 -60 51 -100 50 -21 -1 -126 -48 -291
-132 -143 -72 -262 -128 -265 -124 -4 5 -98 166 -210 358 -235 406 -242 416
-318 491 -126 124 -283 201 -453 220 -49 5 -2025 13 -2032 8z"/>
<path d="M1928 5015 c-2 -1 -59 -6 -128 -9 -69 -4 -147 -9 -175 -11 -57 -5
-180 -13 -310 -20 -107 -6 -226 -14 -315 -20 -36 -2 -110 -7 -165 -10 -55 -3
-127 -8 -160 -10 -55 -4 -138 -9 -320 -20 -295 -18 -312 -22 -340 -81 -17 -36
-15 -76 4 -112 11 -20 80 -66 421 -277 96 -59 179 -111 183 -115 5 -4 -91
-207 -213 -451 -252 -508 -262 -533 -262 -724 0 -142 23 -250 78 -363 28 -58
158 -288 204 -362 8 -13 52 -89 100 -175 10 -16 121 -208 247 -425 213 -366
269 -464 332 -573 107 -188 197 -331 237 -378 110 -126 277 -228 444 -270 77
-20 112 -22 386 -23 325 -1 336 0 371 53 17 24 18 82 19 868 0 647 -3 850 -12
872 -7 16 -25 38 -40 48 -26 17 -64 18 -481 23 l-452 5 109 190 c61 105 114
197 120 205 6 8 13 21 17 29 3 8 35 64 71 125 36 61 75 129 87 151 123 217
175 300 187 298 7 -2 118 -43 246 -93 146 -56 247 -90 270 -90 62 1 113 58
107 121 -2 19 -31 96 -65 170 -34 74 -74 159 -87 189 -78 169 -211 458 -250
540 -25 52 -75 163 -113 245 -82 181 -175 381 -192 414 -20 38 -60 61 -110 65
-26 2 -48 2 -50 1z"/>
<path d="M5660 4012 c-747 -437 -760 -446 -760 -511 0 -25 32 -94 79 -171 11
-19 24 -42 28 -50 3 -8 49 -91 101 -185 98 -175 112 -201 177 -320 22 -38 56
-99 76 -135 21 -35 36 -66 33 -69 -7 -7 -1064 -5 -1071 3 -4 4 -8 116 -8 250
0 272 -3 284 -72 313 -68 28 -102 8 -223 -126 -8 -10 -51 -57 -95 -107 -44
-49 -91 -101 -105 -115 -14 -14 -61 -66 -105 -115 -44 -49 -105 -116 -135
-149 -30 -32 -59 -64 -65 -71 -25 -27 -482 -530 -535 -587 -19 -21 -40 -48
-47 -60 -20 -35 -15 -91 10 -128 19 -28 148 -197 190 -249 7 -8 39 -51 72 -95
33 -44 63 -82 66 -85 3 -3 55 -70 116 -150 60 -80 206 -269 323 -420 116 -151
244 -318 283 -370 40 -52 78 -101 85 -108 6 -8 16 -22 22 -31 12 -23 70 -51
105 -51 39 0 82 29 97 64 9 21 13 88 13 208 0 97 4 180 7 184 4 4 213 7 465 9
529 2 534 3 698 80 33 16 65 33 70 37 6 4 33 25 60 46 47 36 136 133 162 177
41 69 108 183 123 209 10 17 95 164 190 326 95 162 184 315 198 340 14 25 42
72 62 105 20 33 39 67 43 75 4 8 17 31 28 50 12 19 53 89 92 155 38 66 136
228 217 360 208 339 229 383 256 535 12 72 12 230 -1 295 -9 47 -35 125 -62
185 -72 160 -402 809 -424 834 -21 23 -37 30 -75 32 -49 4 -54 1 -764 -414z"/>
</g>
</svg>
